<?xml version="1.0" encoding="UTF-8"?>
<!DOCTYPE svg PUBLIC "-//W3C//DTD SVG 1.1//EN" "http://www.w3.org/Graphics/SVG/1.1/DTD/svg11.dtd">
<!-- Creator: CorelDRAW X7 -->
<svg xmlns="http://www.w3.org/2000/svg" xml:space="preserve" width="200px" height="200px" version="1.1" style="shape-rendering:geometricPrecision; text-rendering:geometricPrecision; image-rendering:optimizeQuality; fill-rule:evenodd; clip-rule:evenodd"
viewBox="0 0 200 200"
 xmlns:xlink="http://www.w3.org/1999/xlink">
 <defs>
  <style type="text/css">
   <![CDATA[
    .fil0 {fill:none}
    .fil18 {fill:#27324B}
    .fil11 {fill:#2875C3}
    .fil6 {fill:#2FB9DA}
    .fil7 {fill:#378AB8}
    .fil13 {fill:#BF1A03}
    .fil8 {fill:#DD4C39}
    .fil10 {fill:#EC948D}
    .fil3 {fill:#ED710B}
    .fil1 {fill:#F18803}
    .fil12 {fill:#FDFEFC}
    .fil9 {fill:#FDFEFE}
    .fil14 {fill:#FFFDFD}
    .fil2 {fill:#FFFFFE}
    .fil5 {fill:#7B7B7B}
    .fil4 {fill:#ACACAC}
    .fil16 {fill:url(#id0)}
    .fil17 {fill:url(#id1)}
    .fil15 {fill:url(#id2)}
   ]]>
  </style>
  <linearGradient id="id0" gradientUnits="userSpaceOnUse" x1="676.621" y1="335.834" x2="737.312" y2="274.496">
   <stop offset="0" style="stop-opacity:1; stop-color:#0095D5"/>
   <stop offset="0.368627" style="stop-opacity:1; stop-color:#4082DC"/>
   <stop offset="1" style="stop-opacity:1; stop-color:#806EE3"/>
  </linearGradient>
  <linearGradient id="id1" gradientUnits="userSpaceOnUse" x1="677.823" y1="327.261" x2="736.201" y2="226.149">
   <stop offset="0" style="stop-opacity:1; stop-color:#C657BC"/>
   <stop offset="0.360784" style="stop-opacity:1; stop-color:#DF7063"/>
   <stop offset="1" style="stop-opacity:1; stop-color:#F88909"/>
  </linearGradient>
  <linearGradient id="id2" gradientUnits="userSpaceOnUse" x1="657.389" y1="270.378" x2="699.184" y2="228.713">
   <stop offset="0" style="stop-opacity:1; stop-color:#0095D5"/>
   <stop offset="1" style="stop-opacity:1; stop-color:#806EE3"/>
  </linearGradient>
 </defs>
 <g id="Capa_x0020_1">
  <metadata id="CorelCorpID_0Corel-Layer"/>
  <rect class="fil0" width="200" height="200"/>
  <g id="_348274720">
   <path class="fil1" d="M258 -50c10,-5 16,-26 20,-29 14,-11 19,21 27,20 3,0 7,-12 10,-18 4,-9 14,-3 18,2 3,4 7,14 9,19l5 9c2,2 24,15 30,2 3,-7 1,-17 7,-21 8,-5 17,0 17,0 4,1 8,-2 19,3 5,2 5,4 7,8l0 -2 1 4 29 0c0,0 0,2 0,2 0,2 0,1 1,2l0 -56c0,-9 -5,-17 -13,-22 -4,-2 -6,-3 -9,-3l-10 0 -135 0 -8 0c-9,0 -17,2 -23,14 -2,2 -2,5 -2,8l0 12c0,16 0,31 0,46z"/>
   <path class="fil2" d="M258 -50l0 53c3,-5 8,-11 10,-16 3,-11 8,-5 12,-2 7,5 24,7 32,8 -2,3 -3,4 -5,10 -2,5 -3,8 -5,11 -4,6 -1,7 -3,14 -2,4 -3,9 -4,14l7 0c1,-7 1,-11 4,-16 1,-3 3,-4 4,-6 1,-3 2,-5 3,-8 2,-5 12,-24 19,-22 3,0 9,7 11,9 5,7 6,17 8,23 1,3 9,12 10,22l6 0c0,-3 -3,-9 -4,-13 -2,-6 -1,-12 -3,-15 -6,-8 -7,-20 -7,-30 8,-2 16,1 26,-2 20,-5 21,-26 25,-29 2,-2 6,-2 10,-3 8,-3 4,-2 11,-1l2 -6c-2,-4 -2,-6 -7,-8 -11,-5 -15,-2 -19,-3 0,0 -9,-5 -17,0 -6,4 -4,14 -7,21 -6,13 -28,0 -30,-2l-5 -9c-2,-5 -6,-15 -9,-19 -4,-5 -14,-11 -18,-2 -3,6 -7,18 -10,18 -8,1 -13,-31 -27,-20 -4,3 -10,24 -20,29z"/>
   <path class="fil3" d="M427 -55l-2 6c-7,-1 -3,-2 -11,1 -4,1 -8,1 -10,3 -4,3 -5,24 -25,29 -10,3 -18,0 -26,2 0,10 1,22 7,30 2,3 1,9 3,15 1,4 4,10 4,13l10 -3c9,-2 25,-2 35,-2 10,0 15,2 22,3 6,2 2,2 11,2 4,0 8,0 13,0l0 -93c-1,-1 -1,0 -1,-2 0,0 0,-2 0,-2l-29 0 -1 -4 0 2z"/>
   <path class="fil3" d="M258 38c0,1 3,2 12,4 3,0 5,0 8,1 5,1 3,1 8,0 6,-1 7,0 9,-1 1,-5 2,-10 4,-14 2,-7 -1,-8 3,-14 2,-3 3,-6 5,-11 2,-6 3,-7 5,-10 -8,-1 -25,-3 -32,-8 -4,-3 -9,-9 -12,2 -2,5 -7,11 -10,16l0 35z"/>
   <path class="fil3" d="M302 42c3,-1 9,-2 14,-1 7,1 3,3 13,3 11,0 21,0 32,0 -1,-10 -9,-19 -10,-22 -2,-6 -3,-16 -8,-23 -2,-2 -8,-9 -11,-9 -7,-2 -17,17 -19,22 -1,3 -2,5 -3,8 -1,2 -3,3 -4,6 -3,5 -3,9 -4,16z"/>
  </g>
  <g id="_348273760">
   <path class="fil4" d="M95 100l-35 51c-2,3 -3,6 -5,9 -1,1 -2,3 -3,4 -1,1 -3,4 -3,5l34 0c5,-7 10,-14 14,-22 3,-3 5,-7 7,-10 1,-1 7,-11 8,-11 0,1 28,42 28,43l34 0c0,-1 -2,-4 -2,-5l-86 -128c0,-1 -1,-1 -1,-2 -1,-1 -1,-2 -2,-2l-34 0c0,0 46,68 46,68z"/>
   <path class="fil5" d="M3 169l35 0c0,-1 1,-2 1,-3l44 -66c-7,-11 -15,-23 -23,-34l-17 -26c0,0 -5,-8 -5,-8l-35 0c1,0 1,1 2,2l21 32c4,6 8,11 11,17l12 17c-15,23 -31,46 -46,69z"/>
   <path class="fil5" d="M137 95l60 0 0 -23 -76 0c0,0 13,19 15,21 0,1 0,2 1,2z"/>
   <path class="fil5" d="M160 129l37 0 0 -23 -53 0c1,2 12,18 14,22 1,0 1,1 2,1z"/>
  </g>
  <g id="_348274168">
   <path class="fil6" d="M684 -15c0,0 -2,2 -3,3 -9,9 -18,18 -28,28 0,0 0,1 0,2l0 30 6 -6c0,0 1,-1 1,-1l13 -13c1,-1 2,-2 3,-3 0,0 0,0 0,0 0,0 0,0 0,0l2 -2c0,0 0,0 1,0 0,0 0,0 0,0 0,0 0,0 0,0l2 -2c0,0 0,-1 0,-1 1,0 2,-1 2,-2l1 0c0,-1 0,-1 0,-1 2,-1 4,-4 6,-5 0,0 1,-1 2,-2l3 -3c1,0 1,-1 2,-2l4 -3c0,-1 0,-1 1,-1l2 -2c0,-1 0,-1 1,-1l0 -1c0,0 0,0 0,0 1,0 2,-1 2,-2 1,0 1,0 1,0l7 -7c0,0 0,-1 0,-1 1,0 2,-1 3,-2 0,-1 -1,-1 -1,-1 0,0 0,-1 0,-1l-1 0c-1,-1 -1,-1 -2,-2l-24 -24c-1,0 -2,-1 -2,-2l-4 -3c0,0 -1,-1 -2,-2 -1,-1 -4,-4 -5,-5 0,0 0,0 -1,-1l-2 -2c0,0 0,0 0,0l-3 -2c-1,-1 -1,-2 -2,-3 -1,0 -1,0 -1,0l-4 -4c0,-1 -1,-1 -1,-1 -1,-1 -1,-2 -2,-2 -1,-1 -1,-2 -2,-2 0,0 0,-1 -1,-1 0,0 0,0 0,0l-4 -4c0,0 -1,-1 -1,-1l0 29c0,2 0,2 0,3 0,0 1,0 1,1l10 10c0,0 0,0 0,0l8 7c0,0 0,1 0,1l3 2c0,0 0,1 0,1l5 4c0,1 0,1 0,1l3 3c1,0 1,1 1,1z"/>
   <path class="fil7" d="M585 -15c1,1 3,2 4,3l5 5c0,0 0,0 0,0l0 0c0,1 0,1 0,1 0,0 0,0 1,0l0 1c0,0 1,0 1,1l1 1c0,0 0,0 1,0l3 4c0,0 0,0 0,0l2 2c0,0 1,0 1,0 0,1 1,1 1,1l10 10c0,0 0,0 0,1l1 1c0,0 0,0 0,0l0 0c0,0 1,0 1,0l3 4c0,0 0,0 0,0l1 1c0,0 0,0 0,0 0,0 0,0 0,0l3 3c0,0 0,0 0,0 0,0 0,0 0,0l4 3c0,0 0,0 0,0l5 5c0,0 0,0 0,0l4 5c1,0 1,0 1,0l4 5c1,0 1,0 1,0l3 4c1,0 1,0 1,0 0,1 1,2 1,2 0,-1 0,-31 0,-32l0 0c0,0 -1,-1 -1,-1l-4 -4c0,-1 -1,-1 -1,-1l-3 -3c0,0 0,0 0,0l-1 -1c0,0 0,0 0,0l-8 -8c0,0 0,0 0,-1 -1,-1 -4,-3 -5,-4 0,0 0,-1 -1,-1l-1 -1c-1,-1 -3,-3 -4,-4l0 0c0,0 0,-1 -1,-1 0,0 -1,-1 -1,-1 0,-1 28,-29 31,-31 0,0 0,0 0,-1l0 -8c0,-7 0,-15 0,-23 0,0 -3,3 -4,4l-11 12c-2,1 -47,46 -48,47z"/>
   <path class="fil7" d="M626 -15c0,0 2,2 3,3l19 19c0,0 0,0 0,0l0 -45 0 1c0,0 0,0 0,0 -1,0 0,0 -1,0l0 0c0,1 0,0 0,1 0,0 0,0 0,0l-11 10c0,0 0,0 0,1l-6 6c0,0 0,0 0,0l-3 3c0,0 0,0 0,0l-1 1c0,0 0,0 0,0z"/>
  </g>
  <g id="_348272128">
   <polygon class="fil8" points="597,194 731,194 731,59 597,59 "/>
   <path class="fil9" d="M620 182l13 0 0 -14 10 0 8 14 15 0c-2,-3 -10,-15 -11,-17 5,-3 8,-5 9,-13 1,-7 -1,-13 -5,-17 -5,-3 -10,-4 -17,-4 -7,0 -15,-1 -22,0l0 51z"/>
   <path class="fil9" d="M714 182l0 -11 -28 0c0,-1 0,-8 0,-10l24 0c1,0 1,0 1,-2l0 -8 -25 0 0 -10 27 0 0 -10 -40 0 0 51 41 0z"/>
   <path class="fil8" d="M633 157c8,0 18,2 18,-8 1,-9 -10,-8 -18,-8l0 16z"/>
   <path class="fil10" d="M714 182c0,0 0,0 0,-2l0 -9c-2,0 -24,0 -28,0l0 -9c3,0 23,0 24,-1l-24 0c0,2 0,9 0,10l28 0 0 11z"/>
  </g>
  <g id="_348272488">
   <polygon class="fil11" points="405,344 518,344 518,230 405,230 "/>
   <path class="fil12" d="M476 322l0 12c7,3 21,3 27,0 10,-5 9,-18 5,-23 -5,-7 -17,-9 -19,-13 -2,-3 0,-8 7,-8 7,-1 11,3 13,3l0 -11c-9,-4 -31,-4 -33,12 -1,5 1,10 4,13 6,6 18,7 19,14 0,7 -11,7 -18,4 -2,-1 -3,-3 -5,-3z"/>
   <polygon class="fil12" points="433,290 448,290 448,336 460,336 460,290 474,290 474,280 433,280 "/>
  </g>
  <g id="_348271000">
   <path class="fil13" d="M563 296c-2,1 -1,0 -5,1 -21,3 -18,0 -18,14 0,4 0,8 0,12l22 -3c9,-1 36,-5 41,-10 2,-2 1,-21 1,-25 -4,4 -11,6 -19,8 -5,1 -17,4 -22,3z"/>
   <path class="fil13" d="M541 260c9,-2 21,-3 31,-4 12,-2 19,-4 29,-7 4,-3 3,-5 3,-12 0,-5 0,-10 0,-15 -7,8 -30,9 -40,11 -27,5 -24,-2 -24,15 0,2 0,10 1,12z"/>
   <path class="fil13" d="M564 264c-1,1 0,0 -1,1l-11 1c-4,1 -9,1 -12,2l0 18c0,1 0,3 0,4l1 2c9,-2 21,-3 31,-5 11,-1 19,-3 28,-7 5,-2 4,-4 4,-11 0,-5 0,-10 0,-15 -3,2 -4,3 -8,4 -3,2 -7,2 -10,3 -5,1 -17,4 -22,3z"/>
   <path class="fil14" d="M541 292c2,3 17,3 22,4 5,1 17,-2 22,-3 8,-2 15,-4 19,-8 0,-3 -2,-3 -4,-5 -9,4 -17,6 -28,7 -10,2 -22,3 -31,5z"/>
   <path class="fil14" d="M541 260c3,3 18,3 23,4 5,1 17,-2 22,-3 3,-1 7,-1 10,-3 4,-1 5,-2 8,-4 0,-3 0,-3 -2,-4l-1 -1c0,0 0,0 0,0 -10,3 -17,5 -29,7 -10,1 -22,2 -31,4z"/>
  </g>
  <g id="_348269824">
   <polygon class="fil15" points="649,280 649,219 707,219 "/>
   <polygon class="fil16" points="649,334 707,276 765,334 "/>
   <polygon class="fil17" points="649,334 649,280 707,219 765,219 "/>
  </g>
  <g id="_348269176">
   <path class="fil18" d="M769 15c-2,1 -5,3 -6,5 -4,4 -7,9 -9,14 -2,7 -2,14 1,21 0,1 1,3 2,4 1,1 2,3 3,4 5,5 11,8 19,8 4,0 9,-2 13,-3l1 -1c-7,0 -12,-3 -18,-7 -2,-2 -4,-3 -5,-5 -6,-10 -7,-23 1,-32 0,0 0,-1 1,-1 0,1 1,2 1,3 6,12 6,12 13,22l6 8c0,1 5,7 5,7 2,4 4,9 5,13 0,2 0,2 1,3 5,6 10,8 17,10 2,1 4,1 7,2 3,1 8,1 11,1 1,0 2,0 2,0l7 0c1,0 1,1 2,0l5 0c2,0 3,0 6,-1 4,0 8,-1 11,-2 7,-2 9,-3 13,-7l3 -3c1,-1 1,-1 2,-1 0,-4 3,-12 4,-15 1,0 1,-1 1,-1 1,-1 1,-1 1,-1 5,-7 10,-14 15,-21 6,-10 12,-26 15,-37l2 -13c0,0 0,0 0,1 -2,2 -2,3 -7,5 -9,4 -18,6 -28,8 -23,3 -47,4 -71,2 -6,0 -10,-1 -16,-1 -12,-2 -25,-4 -35,-9 -2,-1 -4,-2 -5,-4 -1,0 -2,-2 -2,-2 0,2 1,6 1,7 1,2 1,5 2,7l2 9c1,1 1,2 1,3z"/>
   <path class="fil18" d="M918 -35c1,1 4,4 0,8 -6,7 -29,10 -38,12 -4,0 -8,0 -12,1 -4,0 -19,1 -24,1 -16,0 -41,-2 -55,-7 -3,-1 -7,-2 -10,-3 -3,-2 -9,-5 -7,-10 1,-2 3,-3 3,-4l-5 3c-5,2 -11,7 -6,13 5,4 15,7 22,9 23,6 42,6 67,6l8 0c1,-1 5,-1 7,-1l4 0c6,0 22,-3 27,-4 8,-2 16,-4 23,-8 12,-7 0,-15 -4,-16z"/>
   <path class="fil18" d="M812 -34c-3,0 -9,0 -9,-4 0,-4 11,-4 15,-3 1,0 2,0 2,0 1,0 5,-4 -4,-5 -5,-1 -18,0 -18,8 0,7 11,11 17,11 12,0 14,-2 24,-7 9,-4 15,-7 27,-7 11,0 16,6 7,9 -4,1 -13,2 -16,-2 -1,0 -1,-1 -1,-2 -2,0 -3,1 -4,1 -5,2 -3,7 2,8 7,3 18,2 25,0 3,-1 8,-4 8,-8 0,-3 -1,-5 -3,-8 -8,-8 -27,-7 -37,-4 -4,0 -9,2 -12,4 -1,0 -1,1 -2,1l-5 4c-1,0 -2,0 -3,1 0,0 0,0 -1,1 -4,1 -7,2 -12,2z"/>
   <polygon class="fil18" points="918,-35 918,-35 918,-35 "/>
  </g>
 </g>
</svg>
