<?xml version="1.0" encoding="UTF-8"?>
<!DOCTYPE svg PUBLIC "-//W3C//DTD SVG 1.1//EN" "http://www.w3.org/Graphics/SVG/1.1/DTD/svg11.dtd">
<!-- Creator: CorelDRAW X7 -->
<svg xmlns="http://www.w3.org/2000/svg" xml:space="preserve" width="200px" height="200px" version="1.1" style="shape-rendering:geometricPrecision; text-rendering:geometricPrecision; image-rendering:optimizeQuality; fill-rule:evenodd; clip-rule:evenodd"
viewBox="0 0 200 200"
 xmlns:xlink="http://www.w3.org/1999/xlink">
 <defs>
  <style type="text/css">
   <![CDATA[
    .fil17 {fill:#27324B}
    .fil10 {fill:#2875C3}
    .fil5 {fill:#2FB9DA}
    .fil6 {fill:#378AB8}
    .fil12 {fill:#BF1A03}
    .fil7 {fill:#DD4C39}
    .fil9 {fill:#EC948D}
    .fil2 {fill:#ED710B}
    .fil0 {fill:#F18803}
    .fil11 {fill:#FDFEFC}
    .fil8 {fill:#FDFEFE}
    .fil13 {fill:#FFFDFD}
    .fil1 {fill:#FFFFFE}
    .fil4 {fill:#7B7B7B}
    .fil3 {fill:#ACACAC}
    .fil14 {fill:url(#id0)}
    .fil15 {fill:url(#id1)}
    .fil16 {fill:url(#id2)}
   ]]>
  </style>
  <linearGradient id="id0" gradientUnits="userSpaceOnUse" x1="14.706" y1="89.1279" x2="86.5294" y2="17.5265">
   <stop offset="0" style="stop-opacity:1; stop-color:#0095D5"/>
   <stop offset="1" style="stop-opacity:1; stop-color:#806EE3"/>
  </linearGradient>
  <linearGradient id="id1" gradientUnits="userSpaceOnUse" x1="47.7559" y1="201.613" x2="152.053" y2="96.2039">
   <stop offset="0" style="stop-opacity:1; stop-color:#0095D5"/>
   <stop offset="0.368627" style="stop-opacity:1; stop-color:#4082DC"/>
   <stop offset="1" style="stop-opacity:1; stop-color:#806EE3"/>
  </linearGradient>
  <linearGradient id="id2" gradientUnits="userSpaceOnUse" x1="49.8217" y1="186.88" x2="150.142" y2="13.121">
   <stop offset="0" style="stop-opacity:1; stop-color:#C657BC"/>
   <stop offset="0.360784" style="stop-opacity:1; stop-color:#DF7063"/>
   <stop offset="1" style="stop-opacity:1; stop-color:#F88909"/>
  </linearGradient>
 </defs>
 <g id="Capa_x0020_1">
  <metadata id="CorelCorpID_0Corel-Layer"/>
  <g id="_345411544">
   <path class="fil0" d="M258 -50c10,-5 16,-26 20,-29 14,-11 19,21 27,20 3,0 7,-12 10,-18 4,-9 14,-3 18,2 3,4 7,14 9,19l5 9c2,2 24,15 30,2 3,-7 1,-17 7,-21 8,-5 17,0 17,0 4,1 8,-2 19,3 5,2 5,4 7,8l0 -2 1 4 29 0c0,0 0,2 0,2 0,2 0,1 1,2l0 -56c0,-9 -5,-17 -13,-22 -4,-2 -6,-3 -9,-3l-10 0 -135 0 -8 0c-9,0 -17,2 -23,14 -2,2 -2,5 -2,8l0 12c0,16 0,31 0,46z"/>
   <path class="fil1" d="M258 -50l0 53c3,-5 8,-11 10,-16 3,-11 8,-5 12,-2 7,5 24,7 32,8 -2,3 -3,4 -5,10 -2,5 -3,8 -5,11 -4,6 -1,7 -3,14 -2,4 -3,9 -4,14l7 0c1,-7 1,-11 4,-16 1,-3 3,-4 4,-6 1,-3 2,-5 3,-8 2,-5 12,-24 19,-22 3,0 9,7 11,9 5,7 6,17 8,23 1,3 9,12 10,22l6 0c0,-3 -3,-9 -4,-13 -2,-6 -1,-12 -3,-15 -6,-8 -7,-20 -7,-30 8,-2 16,1 26,-2 20,-5 21,-26 25,-29 2,-2 6,-2 10,-3 8,-3 4,-2 11,-1l2 -6c-2,-4 -2,-6 -7,-8 -11,-5 -15,-2 -19,-3 0,0 -9,-5 -17,0 -6,4 -4,14 -7,21 -6,13 -28,0 -30,-2l-5 -9c-2,-5 -6,-15 -9,-19 -4,-5 -14,-11 -18,-2 -3,6 -7,18 -10,18 -8,1 -13,-31 -27,-20 -4,3 -10,24 -20,29z"/>
   <path class="fil2" d="M427 -55l-2 6c-7,-1 -3,-2 -11,1 -4,1 -8,1 -10,3 -4,3 -5,24 -25,29 -10,3 -18,0 -26,2 0,10 1,22 7,30 2,3 1,9 3,15 1,4 4,10 4,13l10 -3c9,-2 25,-2 35,-2 10,0 15,2 22,3 6,2 2,2 11,2 4,0 8,0 13,0l0 -93c-1,-1 -1,0 -1,-2 0,0 0,-2 0,-2l-29 0 -1 -4 0 2z"/>
   <path class="fil2" d="M258 38c0,1 3,2 12,4 3,0 5,0 8,1 5,1 3,1 8,0 6,-1 7,0 9,-1 1,-5 2,-10 4,-14 2,-7 -1,-8 3,-14 2,-3 3,-6 5,-11 2,-6 3,-7 5,-10 -8,-1 -25,-3 -32,-8 -4,-3 -9,-9 -12,2 -2,5 -7,11 -10,16l0 35z"/>
   <path class="fil2" d="M302 42c3,-1 9,-2 14,-1 7,1 3,3 13,3 11,0 21,0 32,0 -1,-10 -9,-19 -10,-22 -2,-6 -3,-16 -8,-23 -2,-2 -8,-9 -11,-9 -7,-2 -17,17 -19,22 -1,3 -2,5 -3,8 -1,2 -3,3 -4,6 -3,5 -3,9 -4,16z"/>
  </g>
  <g id="_345410872">
   <path class="fil3" d="M140 -132l-34 51c-2,3 -4,6 -6,9 -1,1 -2,3 -3,4 0,1 -3,4 -3,5l35 0c4,-7 9,-14 14,-22 2,-3 4,-7 7,-10 0,-1 7,-11 7,-11 1,1 28,42 29,43l34 0c0,-1 -2,-4 -3,-5l-85 -128c-1,-1 -1,-1 -2,-2 0,-1 -1,-2 -1,-2l-35 0c1,0 46,68 46,68z"/>
   <path class="fil4" d="M49 -63l34 0c0,-1 1,-2 1,-3l45 -66c-8,-11 -16,-23 -23,-34l-17 -26c-1,0 -6,-8 -6,-8l-34 0c0,0 0,1 1,2l21 32c4,6 8,11 12,17l11 17c-15,23 -30,46 -45,69z"/>
   <path class="fil4" d="M182 -137l61 0 0 -23 -76 0c0,0 12,19 14,21 0,1 1,2 1,2z"/>
   <path class="fil4" d="M205 -103l38 0 0 -23 -54 0c1,2 13,18 15,22 0,0 1,1 1,1z"/>
  </g>
  <g id="_345410008">
   <path class="fil5" d="M-443 335c-1,1 -3,3 -4,4 -14,14 -27,28 -41,41 -1,1 -1,1 -1,4l0 43 9 -8c0,-1 1,-1 1,-2l20 -19c1,-1 3,-2 4,-4 0,0 0,0 0,0 0,0 0,0 0,0l3 -3c0,0 1,0 1,0 0,0 0,0 0,0 0,0 0,0 0,0l3 -3c0,-1 1,-1 1,-1 1,-1 2,-2 3,-3l1 -1c0,0 0,0 0,0 2,-2 6,-6 8,-8 1,-1 2,-2 3,-3l4 -4c2,-1 3,-3 4,-4l5 -5c1,0 1,0 2,-1l3 -3c0,0 1,-1 1,-1l0 0c0,-1 0,-1 0,-1 2,-1 3,-2 4,-3 0,0 0,0 1,-1l10 -10c0,0 0,0 1,0 1,-1 3,-3 3,-4 0,-1 0,-1 -1,-2 0,0 0,0 -1,0l0 -1c-1,-1 -2,-2 -3,-3l-36 -34c-1,-1 -2,-2 -3,-3l-5 -5c-1,-1 -2,-2 -3,-3 -2,-2 -6,-6 -8,-7 0,-1 0,-1 -1,-1l-3 -3c0,0 0,0 0,-1l-4 -3c-1,-1 -2,-3 -4,-4 0,0 0,0 -1,-1l-5 -5c-1,-1 -1,-1 -2,-2 -1,-1 -2,-2 -3,-3 -1,-1 -2,-2 -3,-3 0,0 0,0 -1,0 0,-1 0,0 0,-1l-6 -6c-1,0 -1,-1 -2,-1l0 43c0,2 0,3 1,4 0,0 0,0 1,1l14 14c0,0 1,0 1,0l11 12c0,0 0,0 1,1l3 3c0,0 1,1 1,1l6 6c1,1 1,1 2,1l4 5c0,0 1,1 1,1z"/>
   <path class="fil6" d="M-588 335c1,1 4,3 5,5l7 7c0,0 1,0 1,0l0 1c0,0 0,0 0,0 0,0 1,0 1,1l1 0c0,1 1,1 1,2l1 1c1,0 1,1 1,1l5 5c0,0 0,0 1,0l2 3c1,0 1,1 2,1 0,1 1,1 1,2l15 14c0,0 0,0 0,0l1 2c0,0 0,0 0,0l1 0c0,1 0,1 0,1l5 5c0,0 1,0 1,0l1 2c0,0 0,0 0,0 0,0 0,0 0,0l4 4c0,0 0,0 0,0 0,0 0,0 0,0l5 5c0,0 0,0 0,0l7 7c1,0 1,0 1,0l7 7c0,1 0,1 0,1l7 7c0,0 0,0 0,0l6 5c0,1 0,1 0,1 1,1 2,2 2,2 0,-1 1,-45 0,-46l0 -1c0,0 -1,0 -1,-1l-7 -6c0,-1 0,-1 -1,-1l-4 -4c0,0 0,0 0,-1l-2 -1c0,0 0,0 0,-1l-11 -10c0,-1 -1,-1 -1,-2 -2,-1 -6,-5 -7,-6 0,0 0,-1 -1,-1l-2 -2c-2,-2 -4,-4 -5,-6l-1 0c0,-1 0,-1 0,-1 -1,-1 -2,-1 -2,-2 0,-1 41,-42 45,-45 0,-1 0,-1 1,-2l-1 -11c0,-11 0,-23 0,-34 0,0 -5,5 -5,5l-18 18c-2,3 -68,68 -69,69z"/>
   <path class="fil6" d="M-529 335c1,0 4,3 4,4l28 28c1,0 1,1 1,1l0 -66 -1 1c0,0 0,0 0,0 0,1 1,-1 0,0l0 1c0,0 0,0 -1,0 0,0 0,0 0,0l-15 15c0,1 0,1 -1,1l-8 9c0,0 -1,0 -1,0l-4 4c0,0 0,1 0,1l-1 1c0,0 0,0 -1,0z"/>
  </g>
  <g id="_345408928">
   <polygon class="fil7" points="-318,23 -118,23 -118,-177 -318,-177 "/>
   <path class="fil8" d="M-284 6l20 0 0 -21 15 -1 11 22 22 0c-3,-5 -15,-22 -15,-25 6,-5 11,-9 13,-20 1,-11 -3,-20 -8,-25 -7,-5 -15,-7 -25,-7 -11,0 -23,0 -33,0l0 77z"/>
   <path class="fil8" d="M-144 6l0 -16 -41 0c-1,-2 -1,-12 0,-15l35 0c1,-1 1,-1 1,-3l0 -13 -36 0 0 -14 40 0 0 -16 -60 0 0 77 61 0z"/>
   <path class="fil7" d="M-264 -31c12,0 27,2 27,-12 0,-14 -15,-12 -27,-12l0 24z"/>
   <path class="fil9" d="M-144 6c1,-1 0,0 0,-4l0 -12c-2,-1 -36,-1 -41,-1l0 -14c4,1 34,1 35,0l-35 0c-1,3 -1,13 0,15l41 0 0 16z"/>
  </g>
  <g id="_345408304">
   <polygon class="fil10" points="-319,280 -119,280 -119,80 -319,80 "/>
   <path class="fil11" d="M-193 241l0 21c11,7 36,7 48,1 17,-9 16,-31 9,-40 -10,-12 -30,-17 -35,-24 -4,-5 1,-14 12,-14 14,-1 21,5 24,5l0 -19c-17,-7 -55,-7 -58,22 -1,9 2,17 6,22 12,11 33,14 34,25 1,12 -19,12 -31,7 -3,-2 -6,-4 -9,-6z"/>
   <polygon class="fil11" points="-269,185 -243,185 -243,267 -222,268 -222,185 -196,185 -196,168 -269,168 "/>
  </g>
  <g id="_345406912">
   <path class="fil12" d="M-455 106c-3,3 -1,1 -10,2 -36,5 -31,0 -31,24 0,8 0,16 0,24l40 -6c15,-2 65,-9 74,-18 3,-4 2,-38 2,-45 -7,7 -21,10 -35,13 -9,2 -32,7 -40,6z"/>
   <path class="fil12" d="M-495 41c17,-4 38,-5 56,-8 21,-3 34,-6 53,-13 8,-4 6,-8 6,-21 0,-9 0,-18 0,-28 -13,15 -55,18 -73,21 -49,8 -43,-4 -43,27 0,4 -1,19 1,22z"/>
   <path class="fil12" d="M-453 48c-2,2 1,0 -2,1l-20 3c-7,1 -16,2 -21,4l0 33c0,1 0,4 0,5l1 5c17,-4 38,-6 56,-9 20,-3 34,-6 52,-12 9,-5 7,-9 7,-21 0,-9 0,-19 0,-28 -5,5 -7,6 -15,9 -6,2 -12,3 -18,5 -9,2 -32,6 -40,5z"/>
   <path class="fil13" d="M-495 99c5,5 32,5 40,7 8,1 31,-4 40,-6 14,-3 28,-6 35,-13 -1,-6 -4,-6 -7,-9 -18,6 -32,9 -52,12 -18,3 -39,5 -56,9z"/>
   <path class="fil13" d="M-495 41c7,5 33,5 42,7 8,1 31,-3 40,-5 6,-2 12,-3 18,-5 8,-3 10,-4 15,-9 -1,-4 -1,-4 -4,-7l-1 -1c-1,0 -1,-1 -1,-1 -19,7 -32,10 -53,13 -18,3 -39,4 -56,8z"/>
  </g>
  <g id="_345395392">
   <polygon class="fil14" points="1,106 1,1 100,1 "/>
   <polygon class="fil15" points="1,199 100,99 199,199 "/>
   <polygon class="fil16" points="1,199 1,105 100,1 199,1 "/>
  </g>
  <g id="_345392392">
   <path class="fil17" d="M769 15c-2,1 -5,3 -6,5 -4,4 -7,9 -9,14 -2,7 -2,14 1,21 0,1 1,3 2,4 1,1 2,3 3,4 5,5 11,8 19,8 4,0 9,-2 13,-3l1 -1c-7,0 -12,-3 -18,-7 -2,-2 -4,-3 -5,-5 -6,-10 -7,-23 1,-32 0,0 0,-1 1,-1 0,1 1,2 1,3 6,12 6,12 13,22l6 8c0,1 5,7 5,7 2,4 4,9 5,13 0,2 0,2 1,3 5,6 10,8 17,10 2,1 4,1 7,2 3,1 8,1 11,1 1,0 2,0 2,0l7 0c1,0 1,1 2,0l5 0c2,0 3,0 6,-1 4,0 8,-1 11,-2 7,-2 9,-3 13,-7l3 -3c1,-1 1,-1 2,-1 0,-4 3,-12 4,-15 1,0 1,-1 1,-1 1,-1 1,-1 1,-1 5,-7 10,-14 15,-21 6,-10 12,-26 15,-37l2 -13c0,0 0,0 0,1 -2,2 -2,3 -7,5 -9,4 -18,6 -28,8 -23,3 -47,4 -71,2 -6,0 -10,-1 -16,-1 -12,-2 -25,-4 -35,-9 -2,-1 -4,-2 -5,-4 -1,0 -2,-2 -2,-2 0,2 1,6 1,7 1,2 1,5 2,7l2 9c1,1 1,2 1,3z"/>
   <path class="fil17" d="M918 -35c1,1 4,4 0,8 -6,7 -29,10 -38,12 -4,0 -8,0 -12,1 -4,0 -19,1 -24,1 -16,0 -41,-2 -55,-7 -3,-1 -7,-2 -10,-3 -3,-2 -9,-5 -7,-10 1,-2 3,-3 3,-4l-5 3c-5,2 -11,7 -6,13 5,4 15,7 22,9 23,6 42,6 67,6l8 0c1,-1 5,-1 7,-1l4 0c6,0 22,-3 27,-4 8,-2 16,-4 23,-8 12,-7 0,-15 -4,-16z"/>
   <path class="fil17" d="M812 -34c-3,0 -9,0 -9,-4 0,-4 11,-4 15,-3 1,0 2,0 2,0 1,0 5,-4 -4,-5 -5,-1 -18,0 -18,8 0,7 11,11 17,11 12,0 14,-2 24,-7 9,-4 15,-7 27,-7 11,0 16,6 7,9 -4,1 -13,2 -16,-2 -1,0 -1,-1 -1,-2 -2,0 -3,1 -4,1 -5,2 -3,7 2,8 7,3 18,2 25,0 3,-1 8,-4 8,-8 0,-3 -1,-5 -3,-8 -8,-8 -27,-7 -37,-4 -4,0 -9,2 -12,4 -1,0 -1,1 -2,1l-5 4c-1,0 -2,0 -3,1 0,0 0,0 -1,1 -4,1 -7,2 -12,2z"/>
   <polygon class="fil17" points="918,-35 918,-35 918,-35 "/>
  </g>
 </g>
</svg>
