<?xml version="1.0" encoding="UTF-8"?>
<!DOCTYPE svg PUBLIC "-//W3C//DTD SVG 1.1//EN" "http://www.w3.org/Graphics/SVG/1.1/DTD/svg11.dtd">
<!-- Creator: CorelDRAW X7 -->
<svg xmlns="http://www.w3.org/2000/svg" xml:space="preserve" width="200px" height="200px" version="1.1" style="shape-rendering:geometricPrecision; text-rendering:geometricPrecision; image-rendering:optimizeQuality; fill-rule:evenodd; clip-rule:evenodd"
viewBox="0 0 200 200"
 xmlns:xlink="http://www.w3.org/1999/xlink">
 <defs>
  <style type="text/css">
   <![CDATA[
    .fil0 {fill:none}
    .fil18 {fill:#27324B}
    .fil11 {fill:#2875C3}
    .fil6 {fill:#2FB9DA}
    .fil7 {fill:#378AB8}
    .fil13 {fill:#BF1A03}
    .fil8 {fill:#DD4C39}
    .fil10 {fill:#EC948D}
    .fil3 {fill:#ED710B}
    .fil1 {fill:#F18803}
    .fil12 {fill:#FDFEFC}
    .fil9 {fill:#FDFEFE}
    .fil14 {fill:#FFFDFD}
    .fil2 {fill:#FFFFFE}
    .fil5 {fill:#7B7B7B}
    .fil4 {fill:#ACACAC}
    .fil16 {fill:url(#id0)}
    .fil17 {fill:url(#id1)}
    .fil15 {fill:url(#id2)}
   ]]>
  </style>
  <linearGradient id="id0" gradientUnits="userSpaceOnUse" x1="676.621" y1="335.834" x2="737.312" y2="274.496">
   <stop offset="0" style="stop-opacity:1; stop-color:#0095D5"/>
   <stop offset="0.368627" style="stop-opacity:1; stop-color:#4082DC"/>
   <stop offset="1" style="stop-opacity:1; stop-color:#806EE3"/>
  </linearGradient>
  <linearGradient id="id1" gradientUnits="userSpaceOnUse" x1="677.823" y1="327.261" x2="736.201" y2="226.149">
   <stop offset="0" style="stop-opacity:1; stop-color:#C657BC"/>
   <stop offset="0.360784" style="stop-opacity:1; stop-color:#DF7063"/>
   <stop offset="1" style="stop-opacity:1; stop-color:#F88909"/>
  </linearGradient>
  <linearGradient id="id2" gradientUnits="userSpaceOnUse" x1="657.389" y1="270.378" x2="699.184" y2="228.713">
   <stop offset="0" style="stop-opacity:1; stop-color:#0095D5"/>
   <stop offset="1" style="stop-opacity:1; stop-color:#806EE3"/>
  </linearGradient>
 </defs>
 <g id="Capa_x0020_1">
  <metadata id="CorelCorpID_0Corel-Layer"/>
  <rect class="fil0" width="200" height="200"/>
  <g id="_356074272">
   <path class="fil1" d="M0 80c11,-5 17,-26 21,-29 13,-11 19,21 26,20 4,0 8,-12 11,-17 4,-9 14,-4 18,1 3,4 7,14 9,19l5 9c2,2 24,16 29,2 3,-7 2,-17 8,-21 8,-5 17,0 17,0 4,1 7,-1 19,3 5,2 4,4 7,8l0 -2 0 4 29 0c0,1 0,2 0,2 1,2 1,1 1,2l0 -56c0,-9 -4,-17 -12,-22 -4,-2 -6,-3 -10,-3l-9 0 -136 0 -7 0c-9,0 -18,2 -24,14 -1,3 -1,5 -2,8l0 13c0,15 0,30 0,45z"/>
   <path class="fil2" d="M0 80l0 53c4,-5 9,-11 10,-15 4,-12 8,-5 12,-3 7,5 25,7 33,8 -2,3 -4,4 -6,10 -1,5 -2,8 -5,12 -4,5 -1,6 -3,13 -1,4 -2,10 -3,14l6 0c2,-7 1,-11 5,-16 1,-2 3,-4 4,-6 1,-3 1,-5 3,-8 2,-5 12,-24 18,-22 3,1 10,7 11,9 5,7 7,17 9,23 1,3 8,12 10,22l5 0c1,-3 -2,-9 -3,-13 -2,-5 -1,-12 -4,-15 -5,-7 -6,-19 -6,-30 8,-1 16,1 25,-1 21,-6 22,-27 25,-30 3,-2 7,-2 10,-3 8,-3 5,-2 12,-1l2 -6c-3,-4 -2,-6 -7,-8 -12,-4 -15,-2 -19,-3 0,0 -9,-5 -17,0 -6,4 -5,14 -8,21 -5,14 -27,0 -29,-2l-5 -9c-2,-5 -6,-15 -9,-19 -4,-5 -14,-10 -18,-1 -3,5 -7,17 -11,17 -7,1 -13,-31 -26,-20 -4,3 -10,24 -21,29z"/>
   <path class="fil3" d="M170 75l-2 6c-7,-1 -4,-2 -12,1 -3,1 -7,1 -10,3 -3,3 -4,24 -25,30 -9,2 -17,0 -25,1 0,11 1,23 6,30 3,3 2,10 4,15 1,4 4,10 3,13l10 -2c10,-2 26,-2 36,-2 10,0 14,1 22,2 6,2 2,2 11,2 4,0 8,0 12,0l0 -93c0,-1 0,0 -1,-2 0,0 0,-1 0,-2l-29 0 0 -4 0 2z"/>
   <path class="fil3" d="M0 168c1,1 4,2 12,4 3,0 6,0 9,1 5,2 3,1 8,0 5,-1 6,1 9,-1 1,-4 2,-10 3,-14 2,-7 -1,-8 3,-13 3,-4 4,-7 5,-12 2,-6 4,-7 6,-10 -8,-1 -26,-3 -33,-8 -4,-2 -8,-9 -12,3 -1,4 -6,10 -10,15l0 35z"/>
   <path class="fil3" d="M44 172c4,-1 10,-1 15,-1 7,1 3,3 13,3 10,0 21,0 32,0 -2,-10 -9,-19 -10,-22 -2,-6 -4,-16 -9,-23 -1,-2 -8,-8 -11,-9 -6,-2 -16,17 -18,22 -2,3 -2,5 -3,8 -1,2 -3,4 -4,6 -4,5 -3,9 -5,16z"/>
  </g>
  <g id="_356073624">
   <path class="fil4" d="M477 143l-24 35c-2,2 -3,4 -4,6 -1,1 -2,2 -2,3 -1,1 -2,3 -2,3l24 0c3,-5 6,-10 9,-15 2,-2 4,-5 5,-7 1,-1 5,-7 5,-7 1,0 20,29 20,29l24 0c0,0 -2,-2 -2,-3l-59 -89c-1,-1 -1,-1 -1,-2 -1,0 -1,-1 -1,-1l-24 0c0,0 32,48 32,48z"/>
   <path class="fil5" d="M413 190l24 0c0,0 1,-1 1,-1l31 -46c-6,-8 -11,-16 -16,-24l-12 -18c0,-1 -4,-6 -4,-6l-24 0c0,0 1,1 1,1l15 23c2,4 5,8 8,12l8 12c-11,15 -21,31 -32,47z"/>
   <path class="fil5" d="M506 139l42 0 0 -16 -53 0c0,0 9,13 10,15 0,0 0,1 1,1z"/>
   <path class="fil5" d="M522 162l26 0 0 -16 -37 0c1,2 8,13 10,16 0,0 0,0 1,0z"/>
  </g>
  <g id="_356105256">
   <path class="fil6" d="M684 -15c0,0 -2,2 -3,3 -9,9 -18,18 -28,28 0,0 0,1 0,2l0 30 6 -6c0,0 1,-1 1,-1l13 -13c1,-1 2,-2 3,-3 0,0 0,0 0,0 0,0 0,0 0,0l2 -2c0,0 0,0 1,0 0,0 0,0 0,0 0,0 0,0 0,0l2 -2c0,0 0,-1 0,-1 1,0 2,-1 2,-2l1 0c0,-1 0,-1 0,-1 2,-1 4,-4 6,-5 0,0 1,-1 2,-2l3 -3c1,0 1,-1 2,-2l4 -3c0,-1 0,-1 1,-1l2 -2c0,-1 0,-1 1,-1l0 -1c0,0 0,0 0,0 1,0 2,-1 2,-2 1,0 1,0 1,0l7 -7c0,0 0,-1 0,-1 1,0 2,-1 3,-2 0,-1 -1,-1 -1,-1 0,0 0,-1 0,-1l-1 0c-1,-1 -1,-1 -2,-2l-24 -24c-1,0 -2,-1 -2,-2l-4 -3c0,0 -1,-1 -2,-2 -1,-1 -4,-4 -5,-5 0,0 0,0 -1,-1l-2 -2c0,0 0,0 0,0l-3 -2c-1,-1 -1,-2 -2,-3 -1,0 -1,0 -1,0l-4 -4c0,-1 -1,-1 -1,-1 -1,-1 -1,-2 -2,-2 -1,-1 -1,-2 -2,-2 0,0 0,-1 -1,-1 0,0 0,0 0,0l-4 -4c0,0 -1,-1 -1,-1l0 29c0,2 0,2 0,3 0,0 1,0 1,1l10 10c0,0 0,0 0,0l8 7c0,0 0,1 0,1l3 2c0,0 0,1 0,1l5 4c0,1 0,1 0,1l3 3c1,0 1,1 1,1z"/>
   <path class="fil7" d="M585 -15c1,1 3,2 4,3l5 5c0,0 0,0 0,0l0 0c0,1 0,1 0,1 0,0 0,0 1,0l0 1c0,0 1,0 1,1l1 1c0,0 0,0 1,0l3 4c0,0 0,0 0,0l2 2c0,0 1,0 1,0 0,1 1,1 1,1l10 10c0,0 0,0 0,1l1 1c0,0 0,0 0,0l0 0c0,0 1,0 1,0l3 4c0,0 0,0 0,0l1 1c0,0 0,0 0,0 0,0 0,0 0,0l3 3c0,0 0,0 0,0 0,0 0,0 0,0l4 3c0,0 0,0 0,0l5 5c0,0 0,0 0,0l4 5c1,0 1,0 1,0l4 5c1,0 1,0 1,0l3 4c1,0 1,0 1,0 0,1 1,2 1,2 0,-1 0,-31 0,-32l0 0c0,0 -1,-1 -1,-1l-4 -4c0,-1 -1,-1 -1,-1l-3 -3c0,0 0,0 0,0l-1 -1c0,0 0,0 0,0l-8 -8c0,0 0,0 0,-1 -1,-1 -4,-3 -5,-4 0,0 0,-1 -1,-1l-1 -1c-1,-1 -3,-3 -4,-4l0 0c0,0 0,-1 -1,-1 0,0 -1,-1 -1,-1 0,-1 28,-29 31,-31 0,0 0,0 0,-1l0 -8c0,-7 0,-15 0,-23 0,0 -3,3 -4,4l-11 12c-2,1 -47,46 -48,47z"/>
   <path class="fil7" d="M626 -15c0,0 2,2 3,3l19 19c0,0 0,0 0,0l0 -45 0 1c0,0 0,0 0,0 -1,0 0,0 -1,0l0 0c0,1 0,0 0,1 0,0 0,0 0,0l-11 10c0,0 0,0 0,1l-6 6c0,0 0,0 0,0l-3 3c0,0 0,0 0,0l-1 1c0,0 0,0 0,0z"/>
  </g>
  <g id="_356104272">
   <polygon class="fil8" points="597,194 731,194 731,59 597,59 "/>
   <path class="fil9" d="M620 182l13 0 0 -14 10 0 8 14 15 0c-2,-3 -10,-15 -11,-17 5,-3 8,-5 9,-13 1,-7 -1,-13 -5,-17 -5,-3 -10,-4 -17,-4 -7,0 -15,-1 -22,0l0 51z"/>
   <path class="fil9" d="M714 182l0 -11 -28 0c0,-1 0,-8 0,-10l24 0c1,0 1,0 1,-2l0 -8 -25 0 0 -10 27 0 0 -10 -40 0 0 51 41 0z"/>
   <path class="fil8" d="M633 157c8,0 18,2 18,-8 1,-9 -10,-8 -18,-8l0 16z"/>
   <path class="fil10" d="M714 182c0,0 0,0 0,-2l0 -9c-2,0 -24,0 -28,0l0 -9c3,0 23,0 24,-1l-24 0c0,2 0,9 0,10l28 0 0 11z"/>
  </g>
  <g id="_356103816">
   <polygon class="fil11" points="405,344 518,344 518,230 405,230 "/>
   <path class="fil12" d="M476 322l0 12c7,3 21,3 27,0 10,-5 9,-18 5,-23 -5,-7 -17,-9 -19,-13 -2,-3 0,-8 7,-8 7,-1 11,3 13,3l0 -11c-9,-4 -31,-4 -33,12 -1,5 1,10 4,13 6,6 18,7 19,14 0,7 -11,7 -18,4 -2,-1 -3,-3 -5,-3z"/>
   <polygon class="fil12" points="433,290 448,290 448,336 460,336 460,290 474,290 474,280 433,280 "/>
  </g>
  <g id="_356099640">
   <path class="fil13" d="M563 296c-2,1 -1,0 -5,1 -21,3 -18,0 -18,14 0,4 0,8 0,12l22 -3c9,-1 36,-5 41,-10 2,-2 1,-21 1,-25 -4,4 -11,6 -19,8 -5,1 -17,4 -22,3z"/>
   <path class="fil13" d="M541 260c9,-2 21,-3 31,-4 12,-2 19,-4 29,-7 4,-3 3,-5 3,-12 0,-5 0,-10 0,-15 -7,8 -30,9 -40,11 -27,5 -24,-2 -24,15 0,2 0,10 1,12z"/>
   <path class="fil13" d="M564 264c-1,1 0,0 -1,1l-11 1c-4,1 -9,1 -12,2l0 18c0,1 0,3 0,4l1 2c9,-2 21,-3 31,-5 11,-1 19,-3 28,-7 5,-2 4,-4 4,-11 0,-5 0,-10 0,-15 -3,2 -4,3 -8,4 -3,2 -7,2 -10,3 -5,1 -17,4 -22,3z"/>
   <path class="fil14" d="M541 292c2,3 17,3 22,4 5,1 17,-2 22,-3 8,-2 15,-4 19,-8 0,-3 -2,-3 -4,-5 -9,4 -17,6 -28,7 -10,2 -22,3 -31,5z"/>
   <path class="fil14" d="M541 260c3,3 18,3 23,4 5,1 17,-2 22,-3 3,-1 7,-1 10,-3 4,-1 5,-2 8,-4 0,-3 0,-3 -2,-4l-1 -1c0,0 0,0 0,0 -10,3 -17,5 -29,7 -10,1 -22,2 -31,4z"/>
  </g>
  <g id="_356099112">
   <polygon class="fil15" points="649,280 649,219 707,219 "/>
   <polygon class="fil16" points="649,334 707,276 765,334 "/>
   <polygon class="fil17" points="649,334 649,280 707,219 765,219 "/>
  </g>
  <g id="_356098056">
   <path class="fil18" d="M769 15c-2,1 -5,3 -6,5 -4,4 -7,9 -9,14 -2,7 -2,14 1,21 0,1 1,3 2,4 1,1 2,3 3,4 5,5 11,8 19,8 4,0 9,-2 13,-3l1 -1c-7,0 -12,-3 -18,-7 -2,-2 -4,-3 -5,-5 -6,-10 -7,-23 1,-32 0,0 0,-1 1,-1 0,1 1,2 1,3 6,12 6,12 13,22l6 8c0,1 5,7 5,7 2,4 4,9 5,13 0,2 0,2 1,3 5,6 10,8 17,10 2,1 4,1 7,2 3,1 8,1 11,1 1,0 2,0 2,0l7 0c1,0 1,1 2,0l5 0c2,0 3,0 6,-1 4,0 8,-1 11,-2 7,-2 9,-3 13,-7l3 -3c1,-1 1,-1 2,-1 0,-4 3,-12 4,-15 1,0 1,-1 1,-1 1,-1 1,-1 1,-1 5,-7 10,-14 15,-21 6,-10 12,-26 15,-37l2 -13c0,0 0,0 0,1 -2,2 -2,3 -7,5 -9,4 -18,6 -28,8 -23,3 -47,4 -71,2 -6,0 -10,-1 -16,-1 -12,-2 -25,-4 -35,-9 -2,-1 -4,-2 -5,-4 -1,0 -2,-2 -2,-2 0,2 1,6 1,7 1,2 1,5 2,7l2 9c1,1 1,2 1,3z"/>
   <path class="fil18" d="M918 -35c1,1 4,4 0,8 -6,7 -29,10 -38,12 -4,0 -8,0 -12,1 -4,0 -19,1 -24,1 -16,0 -41,-2 -55,-7 -3,-1 -7,-2 -10,-3 -3,-2 -9,-5 -7,-10 1,-2 3,-3 3,-4l-5 3c-5,2 -11,7 -6,13 5,4 15,7 22,9 23,6 42,6 67,6l8 0c1,-1 5,-1 7,-1l4 0c6,0 22,-3 27,-4 8,-2 16,-4 23,-8 12,-7 0,-15 -4,-16z"/>
   <path class="fil18" d="M812 -34c-3,0 -9,0 -9,-4 0,-4 11,-4 15,-3 1,0 2,0 2,0 1,0 5,-4 -4,-5 -5,-1 -18,0 -18,8 0,7 11,11 17,11 12,0 14,-2 24,-7 9,-4 15,-7 27,-7 11,0 16,6 7,9 -4,1 -13,2 -16,-2 -1,0 -1,-1 -1,-2 -2,0 -3,1 -4,1 -5,2 -3,7 2,8 7,3 18,2 25,0 3,-1 8,-4 8,-8 0,-3 -1,-5 -3,-8 -8,-8 -27,-7 -37,-4 -4,0 -9,2 -12,4 -1,0 -1,1 -2,1l-5 4c-1,0 -2,0 -3,1 0,0 0,0 -1,1 -4,1 -7,2 -12,2z"/>
   <polygon class="fil18" points="918,-35 918,-35 918,-35 "/>
  </g>
 </g>
</svg>
